<?xml version="1.0" standalone="no"?>
<!DOCTYPE svg PUBLIC "-//W3C//DTD SVG 20010904//EN"
 "http://www.w3.org/TR/2001/REC-SVG-20010904/DTD/svg10.dtd">
<svg version="1.0" xmlns="http://www.w3.org/2000/svg"
 width="245.000000pt" height="205.000000pt" viewBox="0 0 245.000000 205.000000"
 preserveAspectRatio="xMidYMid meet">

<g transform="translate(0.000000,205.000000) scale(0.100000,-0.100000)"
fill="#000000" stroke="none">
<path d="M352 1920 c-105 -22 -221 -122 -265 -230 -22 -55 -22 -55 -22 -680
l0 -625 31 -65 c38 -80 105 -149 182 -187 l57 -28 650 0 650 0 45 24 c105 56
169 130 202 233 14 48 18 92 18 219 l0 159 -25 12 c-24 11 -30 7 -85 -47 l-60
-59 0 -114 c0 -92 -4 -120 -19 -151 -26 -50 -81 -97 -128 -110 -50 -14 -1154
-15 -1203 -1 -49 13 -109 66 -131 114 -17 38 -19 78 -19 622 0 417 3 591 12
615 18 52 55 96 103 119 42 20 54 21 655 20 l613 -1 44 43 c54 52 53 75 -2
103 -39 19 -61 20 -650 22 -335 0 -629 -3 -653 -7z"/>
<path d="M2020 1909 c-14 -6 -55 -40 -93 -77 l-67 -67 187 -187 188 -188 63
63 c93 91 110 134 78 195 -17 32 -232 245 -263 261 -26 13 -59 13 -93 0z"/>
<path d="M1337 1242 l-437 -437 0 -188 0 -187 188 0 187 0 438 438 437 437
-188 188 -187 187 -438 -438z m463 243 c11 -14 -21 -50 -231 -260 -134 -135
-249 -245 -255 -245 -6 0 -17 7 -25 16 -11 13 20 48 232 260 134 134 249 244
255 244 6 0 17 -7 24 -15z m-507 -857 c-65 -66 -83 -78 -110 -78 l-33 0 0 65
0 65 -65 0 -65 0 0 32 c0 27 13 46 77 110 l78 78 97 -97 98 -98 -77 -77z"/>
</g>
</svg>
