<?xml version="1.0" standalone="no"?>
<!DOCTYPE svg PUBLIC "-//W3C//DTD SVG 20010904//EN"
 "http://www.w3.org/TR/2001/REC-SVG-20010904/DTD/svg10.dtd">
<svg version="1.0" xmlns="http://www.w3.org/2000/svg"
 width="512.000000pt" height="512.000000pt" viewBox="0 0 512.000000 512.000000"
 preserveAspectRatio="xMidYMid meet">

<g transform="translate(0.000000,512.000000) scale(0.100000,-0.100000)"
fill="#000000" stroke="none">
<path d="M751 4796 c-53 -29 -50 72 -50 -1836 -1 -1667 0 -1776 17 -1797 9
-12 107 -68 217 -126 110 -57 299 -156 420 -219 121 -64 319 -167 440 -230
122 -64 291 -152 376 -197 86 -44 166 -81 178 -81 35 0 79 31 91 63 6 19 10
169 10 388 l0 359 380 0 c406 0 424 2 450 49 6 13 10 261 10 726 l0 706 -24
24 c-36 36 -73 42 -115 19 -24 -13 -40 -31 -48 -54 -9 -26 -12 -195 -12 -650
l0 -615 -320 -3 -321 -2 -2 1310 -3 1310 -25 24 c-25 23 -94 60 -815 436 -203
106 -374 197 -380 201 -5 5 403 8 928 7 l937 -3 2 -617 3 -617 29 -30 c40 -42
93 -43 136 -3 l30 27 1 689 c0 752 2 724 -57 746 -16 6 -492 10 -1242 10 -991
-1 -1221 -3 -1241 -14z"/>
<path d="M3708 3810 c-57 -58 -49 -74 196 -424 119 -170 215 -310 213 -312 -2
-3 -332 -5 -733 -7 -787 -2 -759 0 -783 -54 -19 -41 -13 -81 17 -113 l27 -31
738 1 c477 0 737 -4 737 -10 0 -6 -75 -117 -167 -247 -282 -401 -273 -387
-273 -428 0 -77 92 -123 152 -75 22 16 500 685 565 789 45 72 48 67 -249 489
-150 213 -287 402 -304 420 -44 44 -93 45 -136 2z"/>
</g>
</svg>
