<?xml version="1.0" standalone="no"?>
<!DOCTYPE svg PUBLIC "-//W3C//DTD SVG 20010904//EN"
 "http://www.w3.org/TR/2001/REC-SVG-20010904/DTD/svg10.dtd">
<svg version="1.0" xmlns="http://www.w3.org/2000/svg"
 width="225.000000pt" height="225.000000pt" viewBox="0 0 225.000000 225.000000"
 preserveAspectRatio="xMidYMid meet">

<g transform="translate(0.000000,225.000000) scale(0.100000,-0.100000)"
fill="#000000" stroke="none">
<path d="M874 2216 c-60 -28 -116 -81 -144 -135 -15 -31 -40 -135 -40 -173 0
-5 -76 -8 -169 -8 -233 0 -251 -8 -251 -114 l0 -56 -45 0 -45 0 0 -85 0 -85
39 0 c21 0 59 -3 85 -6 l46 -7 0 -466 c0 -256 3 -564 7 -684 l6 -218 31 -52
c22 -37 47 -61 86 -84 l54 -33 588 0 c477 0 595 3 622 14 49 21 105 74 132
127 l24 48 0 674 0 674 46 7 c26 3 66 6 90 6 l44 0 0 85 0 85 -44 0 -44 0 -4
60 c-3 45 -10 66 -26 83 -21 21 -32 22 -211 25 l-188 4 -6 57 c-10 112 -74
208 -170 255 -50 25 -56 26 -256 26 -196 0 -209 -1 -257 -24z m437 -161 c39
-21 69 -71 69 -117 l0 -38 -255 0 -255 0 0 28 c1 48 36 111 72 127 49 21 328
21 369 0z m419 -1168 l0 -664 -26 -24 -26 -24 -541 -3 c-518 -2 -543 -1 -573
17 -25 15 -32 27 -37 66 -4 26 -7 328 -7 671 l0 624 605 0 605 0 0 -663z"/>
<path d="M700 865 l0 -515 85 0 85 0 0 515 0 515 -85 0 -85 0 0 -515z"/>
<path d="M1040 865 l0 -515 85 0 85 0 0 515 0 515 -85 0 -85 0 0 -515z"/>
<path d="M1390 865 l0 -515 85 0 85 0 0 515 0 515 -85 0 -85 0 0 -515z"/>
</g>
</svg>
