<?xml version="1.0" standalone="no"?>
<!DOCTYPE svg PUBLIC "-//W3C//DTD SVG 20010904//EN"
 "http://www.w3.org/TR/2001/REC-SVG-20010904/DTD/svg10.dtd">
<svg version="1.0" xmlns="http://www.w3.org/2000/svg"
 width="512.000000pt" height="512.000000pt" viewBox="0 0 512.000000 512.000000"
 preserveAspectRatio="xMidYMid meet">

<g transform="translate(0.000000,512.000000) scale(0.100000,-0.100000)"
fill="#FFFFFF" stroke="none">
<path d="M2285 4675 c-536 -71 -1019 -339 -1377 -765 -147 -175 -295 -447
-372 -681 -75 -229 -106 -422 -106 -669 0 -247 31 -440 106 -669 151 -461 457
-854 879 -1131 178 -116 454 -231 675 -280 211 -47 495 -63 705 -40 382 43
751 191 1065 428 181 137 403 387 530 596 274 455 367 1019 254 1546 -66 308
-198 591 -397 855 -73 96 -265 290 -363 367 -311 245 -700 405 -1086 447 -128
14 -388 12 -513 -4z m571 -435 c605 -103 1123 -548 1319 -1132 247 -738 -25
-1535 -670 -1967 -782 -523 -1840 -310 -2366 477 -379 566 -379 1319 0 1884
135 201 281 347 481 480 364 241 798 332 1236 258z"/>
<path d="M2420 3833 c-187 -20 -408 -101 -565 -206 -83 -56 -108 -77 -203
-170 -172 -170 -294 -396 -348 -647 -26 -119 -26 -381 0 -500 96 -446 404
-802 826 -955 395 -142 859 -73 1193 179 93 70 250 232 279 289 41 81 22 192
-44 254 -55 51 -167 69 -231 37 -18 -9 -79 -65 -137 -124 -117 -119 -197 -176
-313 -220 -126 -49 -214 -63 -357 -58 -106 4 -139 10 -220 37 -302 102 -511
336 -577 646 -23 110 -13 306 22 415 87 273 292 478 565 565 69 22 110 28 215
32 148 6 222 -6 350 -56 118 -45 197 -101 320 -226 122 -124 151 -140 241
-133 145 12 233 174 166 305 -29 57 -187 221 -281 291 -244 184 -591 278 -901
245z"/>
</g>
</svg>
