<?xml version="1.0" standalone="no"?>
<!DOCTYPE svg PUBLIC "-//W3C//DTD SVG 20010904//EN"
 "http://www.w3.org/TR/2001/REC-SVG-20010904/DTD/svg10.dtd">
<svg version="1.0" xmlns="http://www.w3.org/2000/svg"
 width="256.000000pt" height="256.000000pt" viewBox="0 0 256.000000 256.000000"
 preserveAspectRatio="xMidYMid meet">

<g transform="translate(0.000000,256.000000) scale(0.100000,-0.100000)"
fill="#FFFFFF" stroke="none">
<path d="M255 2386 c-41 -18 -83 -69 -90 -109 -3 -18 -5 -208 -3 -424 3 -377
4 -393 24 -419 11 -15 33 -37 48 -48 27 -20 39 -21 446 -21 407 0 419 1 446
21 15 11 37 33 48 48 20 27 21 39 21 446 0 407 -1 419 -21 446 -11 15 -33 37
-48 48 -27 20 -41 21 -434 23 -323 2 -413 0 -437 -11z m785 -506 l0 -360 -360
0 -360 0 0 360 0 360 360 0 360 0 0 -360z"/>
<path d="M492 2068 c-17 -17 -17 -359 0 -376 17 -17 359 -17 376 0 17 17 17
359 0 376 -8 8 -64 12 -188 12 -124 0 -180 -4 -188 -12z"/>
<path d="M1455 2386 c-41 -18 -83 -69 -90 -109 -3 -18 -5 -208 -3 -424 3 -377
4 -393 24 -419 11 -15 33 -37 48 -48 27 -20 39 -21 446 -21 407 0 419 1 446
21 15 11 37 33 48 48 20 27 21 39 21 446 0 407 -1 419 -21 446 -11 15 -33 37
-48 48 -27 20 -41 21 -434 23 -323 2 -413 0 -437 -11z m785 -506 l0 -360 -360
0 -360 0 0 360 0 360 360 0 360 0 0 -360z"/>
<path d="M1692 2068 c-8 -8 -12 -64 -12 -188 0 -124 4 -180 12 -188 17 -17
359 -17 376 0 17 17 17 359 0 376 -8 8 -64 12 -188 12 -124 0 -180 -4 -188
-12z"/>
<path d="M255 1186 c-41 -18 -83 -69 -90 -109 -3 -18 -5 -208 -3 -424 3 -377
4 -393 24 -419 11 -15 33 -37 48 -48 27 -20 39 -21 446 -21 407 0 419 1 446
21 15 11 37 33 48 48 20 27 21 39 21 446 0 407 -1 419 -21 446 -11 15 -33 37
-48 48 -27 20 -41 21 -434 23 -323 2 -413 0 -437 -11z m785 -506 l0 -360 -360
0 -360 0 0 360 0 360 360 0 360 0 0 -360z"/>
<path d="M492 868 c-17 -17 -17 -359 0 -376 17 -17 359 -17 376 0 17 17 17
359 0 376 -17 17 -359 17 -376 0z"/>
<path d="M1372 1188 c-8 -8 -12 -56 -12 -148 0 -92 4 -140 12 -148 17 -17 279
-17 296 0 17 17 17 279 0 296 -17 17 -279 17 -296 0z"/>
<path d="M2172 1188 c-8 -8 -12 -47 -12 -108 0 -61 4 -100 12 -108 16 -16 200
-16 216 0 16 16 16 200 0 216 -16 16 -200 16 -216 0z"/>
<path d="M1692 868 c-8 -8 -12 -64 -12 -188 0 -124 4 -180 12 -188 17 -17 359
-17 376 0 17 17 17 359 0 376 -17 17 -359 17 -376 0z"/>
<path d="M2092 468 c-8 -8 -12 -56 -12 -148 0 -92 4 -140 12 -148 17 -17 279
-17 296 0 17 17 17 279 0 296 -17 17 -279 17 -296 0z"/>
<path d="M1372 388 c-8 -8 -12 -47 -12 -108 0 -61 4 -100 12 -108 16 -16 200
-16 216 0 16 16 16 200 0 216 -16 16 -200 16 -216 0z"/>
</g>
</svg>
