<?xml version="1.0" standalone="no"?>
<!DOCTYPE svg PUBLIC "-//W3C//DTD SVG 20010904//EN"
 "http://www.w3.org/TR/2001/REC-SVG-20010904/DTD/svg10.dtd">
<svg version="1.0" xmlns="http://www.w3.org/2000/svg"
 width="512.000000pt" height="512.000000pt" viewBox="0 0 512.000000 512.000000"
 preserveAspectRatio="xMidYMid meet">

<g transform="translate(0.000000,512.000000) scale(0.100000,-0.100000)"
fill="#000000" stroke="none">
<path d="M412 5109 c-201 -26 -375 -203 -402 -410 -12 -96 -12 -982 0 -1078
11 -81 45 -166 91 -223 l29 -37 -33 -44 c-47 -61 -76 -135 -87 -219 -12 -95
-12 -981 0 -1076 11 -84 40 -158 87 -219 l33 -43 -33 -43 c-47 -61 -76 -135
-87 -219 -12 -95 -12 -981 0 -1077 28 -211 200 -384 410 -411 43 -5 452 -10
948 -10 l872 0 0 160 0 160 -908 0 -907 0 -36 24 c-71 48 -69 33 -69 621 0
515 1 528 21 561 11 18 35 42 53 53 33 21 43 21 940 21 l906 0 0 160 0 160
-908 0 -907 0 -36 24 c-71 48 -69 33 -69 621 0 515 1 528 21 561 11 18 35 42
53 53 33 21 36 21 1846 21 1810 0 1813 0 1846 -21 60 -37 74 -72 74 -193 l0
-106 160 0 160 0 0 73 c-1 167 -33 284 -101 369 l-29 37 33 44 c47 61 76 135
87 219 12 95 12 981 0 1077 -28 211 -200 384 -410 411 -92 12 -3557 11 -3648
-1z m3674 -330 c18 -11 42 -35 53 -53 20 -33 21 -46 21 -566 0 -520 -1 -533
-21 -566 -11 -18 -35 -42 -53 -53 -33 -21 -36 -21 -1847 -21 l-1814 0 -36 24
c-71 48 -69 33 -69 621 0 513 1 529 20 561 12 18 35 42 53 53 l32 21 1814 0
c1811 0 1814 0 1847 -21z"/>
<path d="M760 4308 c-48 -13 -96 -62 -108 -110 -29 -111 75 -214 187 -186 77
20 130 109 110 183 -13 46 -62 101 -97 109 -15 4 -34 9 -42 10 -8 2 -31 0 -50
-6z"/>
<path d="M760 2708 c-48 -13 -96 -62 -108 -110 -29 -111 75 -214 187 -186 77
20 130 109 110 183 -13 46 -62 101 -97 109 -15 4 -34 9 -42 10 -8 2 -31 0 -50
-6z"/>
<path d="M3735 2549 c-503 -39 -943 -385 -1104 -867 -45 -134 -62 -246 -62
-402 0 -274 69 -496 224 -723 160 -235 420 -423 687 -500 236 -68 523 -64 747
9 391 128 699 436 827 828 90 275 75 607 -40 879 -214 509 -727 820 -1279 776z
m345 -334 c342 -94 602 -354 695 -695 23 -86 31 -299 15 -397 -65 -403 -390
-728 -794 -793 -97 -16 -309 -8 -396 16 -342 91 -602 353 -696 699 -29 109
-27 370 4 485 88 324 363 600 677 679 118 30 118 30 280 26 105 -2 170 -8 215
-20z"/>
<path d="M3440 1675 l-105 -105 145 -145 145 -145 -145 -145 -145 -145 108
-107 107 -108 145 145 145 145 145 -145 145 -145 107 108 108 107 -145 145
-145 145 145 145 145 145 -108 107 -107 108 -145 -145 -145 -145 -143 143
c-78 78 -145 142 -147 142 -3 0 -52 -47 -110 -105z"/>
<path d="M760 1108 c-48 -13 -96 -62 -108 -110 -29 -111 75 -214 187 -186 77
20 130 109 110 183 -13 46 -62 101 -97 109 -15 4 -34 9 -42 10 -8 2 -31 0 -50
-6z"/>
</g>
</svg>
