<svg xmlns="http://www.w3.org/2000/svg" xmlns:xlink="http://www.w3.org/1999/xlink" version="1.1" x="0px" y="0px" viewBox="0 0 16 20" style="enable-background:new 0 0 16 16;" xml:space="preserve"><path d="M15,4h-2.296l0.284-1.848c0.084-0.546-0.29-1.056-0.836-1.14c-0.548-0.083-1.057,0.291-1.141,0.836L10.681,4H7.704  l0.284-1.848c0.084-0.546-0.291-1.056-0.836-1.14c-0.543-0.084-1.056,0.29-1.14,0.836L5.681,4H3C2.448,4,2,4.448,2,5s0.448,1,1,1  h2.373l-0.77,5H2c-0.552,0-1,0.447-1,1s0.448,1,1,1h2.296l-0.284,1.848c-0.084,0.546,0.291,1.057,0.836,1.141  C4.899,15.996,4.951,16,5.001,16c0.485,0,0.911-0.354,0.987-0.848L6.319,13h2.977l-0.284,1.848c-0.084,0.546,0.29,1.057,0.836,1.141  C9.899,15.996,9.95,16,10.001,16c0.485,0,0.911-0.354,0.987-0.848L11.319,13H14c0.553,0,1-0.447,1-1s-0.447-1-1-1h-2.373l0.77-5H15  c0.553,0,1-0.448,1-1S15.553,4,15,4z M9.604,11H6.627l0.77-5h2.977L9.604,11z"/><text x="0" y="31" fill="#000000" font-size="5px" font-weight="bold" font-family="'Helvetica Neue', Helvetica, Arial-Unicode, Arial, Sans-serif">Created by Rflor</text><text x="0" y="36" fill="#000000" font-size="5px" font-weight="bold" font-family="'Helvetica Neue', Helvetica, Arial-Unicode, Arial, Sans-serif">from the Noun Project</text></svg>