<?xml version="1.0" encoding="UTF-8"?>
<!DOCTYPE svg PUBLIC "-//W3C//DTD SVG 1.1//EN" "http://www.w3.org/Graphics/SVG/1.1/DTD/svg11.dtd">
<!-- Creator: CorelDRAW 2018 (64-Bit) -->
<svg xmlns="http://www.w3.org/2000/svg" xml:space="preserve" width="4.1373mm" height="4.1373mm" version="1.1" style="shape-rendering:geometricPrecision; text-rendering:geometricPrecision; image-rendering:optimizeQuality; fill-rule:evenodd; clip-rule:evenodd"
viewBox="0 0 464.54 464.54"
 xmlns:xlink="http://www.w3.org/1999/xlink">
 <defs>
  <style type="text/css">
   <![CDATA[
    .fil0 {fill:#FEFEFE;fill-rule:nonzero}
    .fil1 {fill:#3193D0;fill-rule:nonzero}
   ]]>
  </style>
 </defs>
 <g id="Layer_x0020_1">
  <metadata id="CorelCorpID_0Corel-Layer"/>
  <path class="fil0" d="M232.27 0c64.12,0 122.21,26 164.23,68.03 42.03,42.04 68.03,100.11 68.03,164.24 0,64.12 -26,122.19 -68.03,164.23 -42.03,42.03 -100.11,68.03 -164.23,68.03 -64.13,0 -122.21,-26 -164.24,-68.03 -42.03,-42.03 -68.03,-100.1 -68.03,-164.23 0,-64.13 26,-122.21 68.03,-164.24 42.04,-42.03 100.11,-68.03 164.24,-68.03zm149.8 82.47c-38.34,-38.33 -91.31,-62.05 -149.8,-62.05 -58.51,0 -111.47,23.71 -149.8,62.05 -38.33,38.33 -62.05,91.3 -62.05,149.8 0,58.5 23.71,111.47 62.05,149.79 38.33,38.33 91.3,62.06 149.8,62.06 58.5,0 111.46,-23.72 149.8,-62.06 38.33,-38.33 62.05,-91.3 62.05,-149.79 0,-58.51 -23.71,-111.47 -62.05,-149.8z"/>
  <path class="fil1" d="M274.36 216.81c21.59,-13.88 35.93,-38.05 35.93,-65.62 0,-43.08 -34.93,-78 -78.01,-78 -43.08,0 -78,34.92 -78,78 0,27.56 14.33,51.74 35.93,65.62 -50.87,4.55 -90.9,47.42 -90.9,99.46l0 43.82c33.72,34.64 80.82,56.14 132.97,56.14 52.14,0 99.26,-21.5 132.96,-56.14l0 -43.82c0,-52.03 -40.01,-94.89 -90.88,-99.46z"/>
 </g>
</svg>
