<?xml version="1.0" standalone="no"?>
<!DOCTYPE svg PUBLIC "-//W3C//DTD SVG 20010904//EN"
 "http://www.w3.org/TR/2001/REC-SVG-20010904/DTD/svg10.dtd">
<svg version="1.0" xmlns="http://www.w3.org/2000/svg"
 width="512.000000pt" height="512.000000pt" viewBox="0 0 512.000000 512.000000"
 preserveAspectRatio="xMidYMid meet">

<g transform="translate(0.000000,512.000000) scale(0.100000,-0.100000)"
fill="#0000FF" stroke="none">
<path d="M1180 4144 c-142 -52 -229 -183 -218 -327 10 -122 3 -114 597 -709
l546 -548 -546 -547 c-430 -432 -551 -559 -570 -598 -34 -72 -34 -199 1 -270
31 -64 91 -124 155 -155 71 -34 198 -34 270 0 40 18 163 136 598 569 l547 546
548 -546 c434 -433 557 -551 597 -569 72 -34 199 -34 270 0 64 31 124 91 155
155 34 72 35 199 1 270 -19 39 -141 167 -570 598 l-546 547 546 548 c615 616
593 589 593 732 1 71 -4 93 -24 135 -31 64 -91 124 -155 155 -71 35 -198 35
-270 1 -39 -19 -166 -140 -597 -570 l-548 -546 -547 546 c-441 439 -558 550
-598 569 -66 30 -173 37 -235 14z"/>
</g>
</svg>
